# xmcd
#
# Track frame offsets: 
#        150
#        18124
#        34740
#        47908
#        62432
#        82685
#        100373
#        118473
#        132333
#        152390
#        168370
#        185584
#        203558
#
# Disc length: 2908 seconds
#
# Revision: 0
# Processed by: cddbd v1.5.2PL0 Copyright (c) Steve Scherf et al.
# Submitted via: ExactAudioCopy v1.0b4
#
DISCID=a00b5a0d
DTITLE=Niecie - The Other Side
DYEAR=2014
DGENRE=Blues Rock
TTITLE0=Strange Way
TTITLE1=The Other Side
TTITLE2=God's Got This
TTITLE3=Traffic Light
TTITLE4=Harvest For The World
TTITLE5=Bed Of Lies
TTITLE6=Skin To Skin
TTITLE7=Live For The Music
TTITLE8=Dear Mother
TTITLE9=I Use To Have A Brain (Then I Got Married)
TTITLE10=Wanted Woman
TTITLE11=Rockin' A Baby
TTITLE12=Draw The Line
EXTD=
EXTT0=
EXTT1=
EXTT2=
EXTT3=
EXTT4=
EXTT5=
EXTT6=
EXTT7=
EXTT8=
EXTT9=
EXTT10=
EXTT11=
EXTT12=
PLAYORDER=
